<svg width="18" height="18" viewBox="0 0 18 18" fill="none" xmlns="http://www.w3.org/2000/svg">
<path d="M10.9104 3.9572C11.6586 4.09808 12.3462 4.45124 12.8852 4.97147C13.4242 5.4917 13.7901 6.15533 13.9361 6.87743M10.9104 1C12.4648 1.16666 13.9143 1.83849 15.0209 2.90518C16.1275 3.97187 16.8254 5.37001 17 6.87004M16.234 12.7697V14.9875C16.2349 15.1934 16.1912 15.3972 16.1057 15.5859C16.0203 15.7746 15.8949 15.9439 15.7377 16.0831C15.5805 16.2223 15.3949 16.3283 15.1928 16.3942C14.9908 16.4602 14.7766 16.4847 14.5642 16.4661C12.2071 16.219 9.94297 15.4416 7.95371 14.1965C6.10295 13.0614 4.53384 11.547 3.35779 9.7607C2.06326 7.83202 1.25765 5.63614 1.00622 3.35097C0.987076 3.14653 1.01225 2.94048 1.08014 2.74595C1.14802 2.55141 1.25713 2.37265 1.40052 2.22104C1.54391 2.06944 1.71843 1.94831 1.91298 1.86537C2.10753 1.78243 2.31785 1.73949 2.53053 1.7393H4.82849C5.20022 1.73577 5.56061 1.86282 5.84247 2.09678C6.12433 2.33073 6.30843 2.65562 6.36046 3.0109C6.45745 3.72067 6.63732 4.41758 6.89665 5.08833C6.99971 5.35294 7.02201 5.64052 6.96092 5.91699C6.89983 6.19347 6.7579 6.44724 6.55195 6.64825L5.57915 7.58716C6.66958 9.43803 8.25739 10.9705 10.1751 12.023L11.1479 11.084C11.3561 10.8853 11.6191 10.7483 11.9055 10.6893C12.192 10.6304 12.4899 10.6519 12.7641 10.7514C13.4591 11.0017 14.1811 11.1753 14.9165 11.2689C15.2886 11.3195 15.6284 11.5004 15.8713 11.7771C16.1143 12.0538 16.2433 12.4071 16.234 12.7697Z" stroke="#FF3B00" stroke-width="2" stroke-linecap="round" stroke-linejoin="round"/>
</svg>
