<svg width="20" height="34" viewBox="0 0 20 34" fill="none" xmlns="http://www.w3.org/2000/svg">
<path d="M19 14.6157C19 24.4363 10 32.8539 10 32.8539C10 32.8539 1 24.4363 1 14.6157C1 11.267 1.94821 8.05538 3.63604 5.68746C5.32387 3.31954 7.61305 1.98926 10 1.98926C12.3869 1.98926 14.6761 3.31954 16.364 5.68746C18.0518 8.05538 19 11.267 19 14.6157Z" stroke="#948D8D" stroke-width="2" stroke-linecap="round" stroke-linejoin="round"/>
<path d="M10 18.8244C11.6569 18.8244 13 16.94 13 14.6156C13 12.2911 11.6569 10.4067 10 10.4067C8.34315 10.4067 7 12.2911 7 14.6156C7 16.94 8.34315 18.8244 10 18.8244Z" stroke="#948D8D" stroke-width="2" stroke-linecap="round" stroke-linejoin="round"/>
</svg>
