<svg width="162" height="26" viewBox="0 0 162 26" fill="none" xmlns="http://www.w3.org/2000/svg">
<path d="M47.4147 0L51.3827 8.275L60.2562 9.6101L53.8354 16.0477L55.3507 25.1422L47.4147 20.8461L39.4787 25.1422L40.994 16.0477L34.5732 9.6101L43.4467 8.275L47.4147 0Z" fill="#FF3B00"/>
<path d="M149.159 0L153.127 8.275L162 9.6101L155.579 16.0477L157.095 25.1422L149.159 20.8461L141.223 25.1422L142.738 16.0477L136.317 9.6101L145.191 8.275L149.159 0Z" fill="#544E4E"/>
<path d="M12.9174 1.09302L16.9089 8.92758L25.8349 10.1916L19.3762 16.2866L20.9004 24.8971L12.9174 20.8296L4.93446 24.8971L6.45872 16.2866L0 10.1916L8.92595 8.92758L12.9174 1.09302Z" fill="#FF3B00"/>
<path d="M115.573 0L119.541 8.275L128.415 9.6101L121.994 16.0477L123.509 25.1422L115.573 20.8461L107.637 25.1422L109.152 16.0477L102.732 9.6101L111.605 8.275L115.573 0Z" fill="#544E4E"/>
<path d="M81.9877 0L85.9557 8.275L94.8292 9.6101L88.4084 16.0477L89.9237 25.1422L81.9877 20.8461L74.0517 25.1422L75.567 16.0477L69.1462 9.6101L78.0197 8.275L81.9877 0Z" fill="#FF3B00"/>
</svg>
