<svg width="18" height="22" viewBox="0 0 18 22" fill="none" xmlns="http://www.w3.org/2000/svg">
<path d="M17 8.91189C17 15.0656 9 20.3402 9 20.3402C9 20.3402 1 15.0656 1 8.91189C1 6.81353 1.84285 4.80111 3.34315 3.31734C4.84344 1.83357 6.87827 1 9 1C11.1217 1 13.1566 1.83357 14.6569 3.31734C16.1571 4.80111 17 6.81353 17 8.91189Z" stroke="#FF3B00" stroke-width="2" stroke-linecap="round" stroke-linejoin="round"/>
<path d="M9.00016 11.5494C10.4729 11.5494 11.6668 10.3686 11.6668 8.91208C11.6668 7.45554 10.4729 6.27478 9.00016 6.27478C7.5274 6.27478 6.3335 7.45554 6.3335 8.91208C6.3335 10.3686 7.5274 11.5494 9.00016 11.5494Z" stroke="#FF3B00" stroke-width="2" stroke-linecap="round" stroke-linejoin="round"/>
</svg>
