<svg width="164" height="25" viewBox="0 0 164 25" fill="none" xmlns="http://www.w3.org/2000/svg">
<path d="M48 0L52.017 7.94888L61 9.23137L54.5 15.4152L56.034 24.1514L48 20.0246L39.966 24.1514L41.5 15.4152L35 9.23137L43.983 7.94888L48 0Z" fill="#FF3B00"/>
<path d="M151 0L155.017 7.94888L164 9.23137L157.5 15.4152L159.034 24.1514L151 20.0246L142.966 24.1514L144.5 15.4152L138 9.23137L146.983 7.94888L151 0Z" fill="#544E4E"/>
<path d="M13.0769 1.05005L17.1177 8.57586L26.1538 9.79009L19.6154 15.6448L21.1584 23.916L13.0769 20.0088L4.99538 23.916L6.53846 15.6448L0 9.79009L9.03615 8.57586L13.0769 1.05005Z" fill="#FF3B00"/>
<path d="M117 0L121.017 7.94888L130 9.23137L123.5 15.4152L125.034 24.1514L117 20.0246L108.966 24.1514L110.5 15.4152L104 9.23137L112.983 7.94888L117 0Z" fill="#544E4E"/>
<path d="M83 0L87.017 7.94888L96 9.23137L89.5 15.4152L91.034 24.1514L83 20.0246L74.966 24.1514L76.5 15.4152L70 9.23137L78.983 7.94888L83 0Z" fill="#FF3B00"/>
</svg>
