<svg width="24" height="25" viewBox="0 0 24 25" fill="none" xmlns="http://www.w3.org/2000/svg">
<path d="M23 3.11812C22.0424 3.82021 20.9821 4.35721 19.86 4.70841C19.2577 3.98863 18.4573 3.47847 17.567 3.24693C16.6767 3.01538 15.7395 3.07363 14.8821 3.41378C14.0247 3.75394 13.2884 4.35959 12.773 5.14883C12.2575 5.93807 11.9877 6.87281 12 7.82664V8.86605C10.2426 8.91341 8.50127 8.5083 6.93101 7.68678C5.36074 6.86527 4.01032 5.65286 3 4.15753C3 4.15753 -1 13.5122 8 17.6698C5.94053 19.1229 3.48716 19.8515 1 19.7487C10 24.9457 21 19.7487 21 7.79546C20.9991 7.50593 20.9723 7.21712 20.92 6.93275C21.9406 5.88658 22.6608 4.56572 23 3.11812V3.11812Z" stroke="black" stroke-width="2" stroke-linecap="round" stroke-linejoin="round"/>
</svg>
