<svg width="164" height="25" viewBox="0 0 164 25" fill="none" xmlns="http://www.w3.org/2000/svg">
<path d="M47.7358 0L51.7307 7.95673L60.6643 9.24048L54.2 15.4305L55.7256 24.1752L47.7358 20.0443L39.746 24.1752L41.2716 15.4305L34.8074 9.24048L43.7409 7.95673L47.7358 0Z" fill="#FF3B00"/>
<path d="M150.169 0L154.164 7.95673L163.097 9.24048L156.633 15.4305L158.158 24.1752L150.169 20.0443L142.179 24.1752L143.704 15.4305L137.24 9.24048L146.174 7.95673L150.169 0Z" fill="#544E4E"/>
<path d="M13.0049 1.05099L17.0235 8.58423L26.0099 9.79966L19.5074 15.6602L21.042 23.9395L13.0049 20.0285L4.96788 23.9395L6.50247 15.6602L0 9.79966L8.98641 8.58423L13.0049 1.05099Z" fill="#FF3B00"/>
<path d="M116.356 0L120.351 7.95673L129.284 9.24048L122.82 15.4305L124.346 24.1752L116.356 20.0443L108.366 24.1752L109.892 15.4305L103.427 9.24048L112.361 7.95673L116.356 0Z" fill="#544E4E"/>
<path d="M82.5432 0L86.5381 7.95673L95.4716 9.24048L89.0074 15.4305L90.533 24.1752L82.5432 20.0443L74.5534 24.1752L76.079 15.4305L69.6147 9.24048L78.5483 7.95673L82.5432 0Z" fill="#FF3B00"/>
</svg>
