<svg width="164" height="26" viewBox="0 0 164 26" fill="none" xmlns="http://www.w3.org/2000/svg">
<path d="M47.7358 0L51.7307 8.275L60.6643 9.6101L54.2 16.0477L55.7256 25.1422L47.7358 20.8461L39.746 25.1422L41.2716 16.0477L34.8074 9.6101L43.7409 8.275L47.7358 0Z" fill="#FF3B00"/>
<path d="M150.169 0L154.164 8.275L163.097 9.6101L156.633 16.0477L158.158 25.1422L150.169 20.8461L142.179 25.1422L143.704 16.0477L137.24 9.6101L146.174 8.275L150.169 0Z" fill="#544E4E"/>
<path d="M13.0049 1.09302L17.0235 8.92758L26.0099 10.1916L19.5074 16.2866L21.042 24.8971L13.0049 20.8296L4.96788 24.8971L6.50247 16.2866L0 10.1916L8.98641 8.92758L13.0049 1.09302Z" fill="#FF3B00"/>
<path d="M116.356 0L120.351 8.275L129.284 9.6101L122.82 16.0477L124.346 25.1422L116.356 20.8461L108.366 25.1422L109.892 16.0477L103.427 9.6101L112.361 8.275L116.356 0Z" fill="#544E4E"/>
<path d="M82.5432 0L86.5381 8.275L95.4716 9.6101L89.0074 16.0477L90.533 25.1422L82.5432 20.8461L74.5534 25.1422L76.079 16.0477L69.6147 9.6101L78.5483 8.275L82.5432 0Z" fill="#FF3B00"/>
</svg>
