<svg width="164" height="23" viewBox="0 0 164 23" fill="none" xmlns="http://www.w3.org/2000/svg">
<path d="M48 0L52.017 7.26586L61 8.43814L54.5 14.0907L56.034 22.0761L48 18.3039L39.966 22.0761L41.5 14.0907L35 8.43814L43.983 7.26586L48 0Z" fill="#FF3B00"/>
<path d="M151 0L155.017 7.26586L164 8.43814L157.5 14.0907L159.034 22.0761L151 18.3039L142.966 22.0761L144.5 14.0907L138 8.43814L146.983 7.26586L151 0Z" fill="#544E4E"/>
<path d="M13.0769 0.959961L17.1177 7.8391L26.1538 8.94899L19.6154 14.3006L21.1584 21.8611L13.0769 18.2897L4.99538 21.8611L6.53846 14.3006L0 8.94899L9.03615 7.8391L13.0769 0.959961Z" fill="#FF3B00"/>
<path d="M117 0L121.017 7.26586L130 8.43814L123.5 14.0907L125.034 22.0761L117 18.3039L108.966 22.0761L110.5 14.0907L104 8.43814L112.983 7.26586L117 0Z" fill="#544E4E"/>
<path d="M83 0L87.017 7.26586L96 8.43814L89.5 14.0907L91.034 22.0761L83 18.3039L74.966 22.0761L76.5 14.0907L70 8.43814L78.983 7.26586L83 0Z" fill="#FF3B00"/>
</svg>
