<svg width="23" height="33" viewBox="0 0 23 33" fill="none" xmlns="http://www.w3.org/2000/svg">
<path d="M13.9381 7.48675C14.9149 7.75411 15.8125 8.42428 16.5162 9.41149C17.2199 10.3987 17.6976 11.6581 17.8881 13.0284M13.9381 1.875C15.9674 2.19127 17.8597 3.46618 19.3044 5.49038C20.749 7.51459 21.6601 10.1678 21.8881 13.0143M20.8881 24.2098V28.4186C20.8892 28.8093 20.8322 29.1961 20.7206 29.5541C20.6091 29.9121 20.4454 30.2334 20.2402 30.4976C20.035 30.7617 19.7927 30.9628 19.5289 31.088C19.265 31.2132 18.9855 31.2596 18.7081 31.2245C15.631 30.7554 12.6751 29.2802 10.0781 26.9175C7.66194 24.7635 5.61345 21.8896 4.07812 18.4998C2.38809 14.8398 1.33636 10.6728 1.00812 6.33634C0.983127 5.94839 1.01599 5.55738 1.10462 5.18821C1.19324 4.81905 1.33569 4.47982 1.52288 4.19212C1.71008 3.90442 1.93792 3.67456 2.19191 3.51717C2.44589 3.35978 2.72046 3.27831 2.99812 3.27794H5.99812C6.48342 3.27124 6.95391 3.51234 7.32188 3.95631C7.68985 4.40027 7.93019 5.01681 7.99812 5.69099C8.12474 7.03791 8.35957 8.3604 8.69812 9.63325C8.83266 10.1354 8.86178 10.6811 8.78202 11.2058C8.70227 11.7304 8.51698 12.212 8.24812 12.5935L6.97812 14.3752C8.40167 17.8875 10.4746 20.7957 12.9781 22.7928L14.2481 21.0111C14.52 20.6339 14.8633 20.3739 15.2372 20.262C15.6112 20.1502 16.0002 20.191 16.3581 20.3798C17.2654 20.8547 18.2081 21.1842 19.1681 21.3618C19.6539 21.458 20.0975 21.8012 20.4146 22.3263C20.7318 22.8514 20.9003 23.5217 20.8881 24.2098Z" stroke="#948D8D" stroke-width="2" stroke-linecap="round" stroke-linejoin="round"/>
</svg>
